<?xml version="1.0" standalone="no"?>
<!DOCTYPE svg PUBLIC "-//W3C//DTD SVG 20010904//EN"
 "http://www.w3.org/TR/2001/REC-SVG-20010904/DTD/svg10.dtd">
<svg version="1.0" xmlns="http://www.w3.org/2000/svg"
 width="2960.000000pt" height="1776.000000pt" viewBox="0 0 2960.000000 1776.000000"
 preserveAspectRatio="xMidYMid meet">

<g transform="translate(0.000000,1776.000000) scale(0.100000,-0.100000)"
fill="#000000" stroke="none">
<path d="M24630 17429 c-97 -12 -283 -43 -440 -75 -324 -65 -608 -200 -855
-405 -121 -101 -178 -166 -372 -421 -91 -120 -169 -218 -172 -218 -4 0 -23 28
-43 63 -275 478 -834 668 -1622 551 -309 -46 -535 -129 -767 -283 -199 -132
-322 -255 -524 -520 l-108 -143 -19 92 c-48 239 -189 401 -395 455 -94 25
-254 19 -464 -15 -101 -17 -265 -40 -364 -50 -303 -33 -439 -67 -559 -140 -79
-48 -134 -108 -301 -330 -81 -107 -150 -196 -154 -198 -4 -1 -20 28 -35 65
-55 133 -128 218 -236 273 -95 48 -155 61 -305 67 -160 6 -258 -5 -590 -68
-115 -21 -248 -46 -295 -55 -117 -21 -235 -78 -308 -148 -31 -30 -97 -109
-147 -175 -49 -66 -92 -120 -95 -120 -3 -1 -16 18 -29 41 -40 70 -116 143
-186 177 -165 82 -349 82 -760 1 -82 -16 -190 -34 -240 -40 -208 -27 -320 -76
-438 -192 l-79 -77 -44 34 c-73 56 -155 76 -334 82 -180 7 -303 -5 -505 -48
-77 -17 -180 -39 -230 -49 -49 -11 -182 -29 -295 -40 -451 -44 -520 -53 -645
-75 -176 -33 -293 -67 -400 -120 -126 -61 -189 -116 -291 -249 -49 -64 -91
-116 -95 -116 -3 0 -21 20 -39 46 -38 50 -113 111 -175 142 -155 77 -307 80
-725 12 -96 -16 -230 -34 -298 -40 -226 -20 -375 -95 -474 -238 l-16 -24 -51
36 c-104 71 -242 103 -399 92 -75 -5 -92 -4 -86 6 5 7 61 83 125 170 124 165
151 219 170 337 31 189 -62 399 -222 502 -122 78 -263 89 -496 40 -78 -16
-253 -46 -390 -65 -137 -20 -281 -45 -319 -57 -110 -33 -213 -92 -276 -156
-30 -32 -241 -303 -467 -602 l-412 -544 -77 -38 c-44 -21 -101 -60 -134 -91
-32 -30 -346 -436 -726 -938 -368 -487 -800 -1058 -960 -1270 -161 -212 -306
-411 -322 -443 -130 -242 -161 -606 -110 -1277 21 -278 22 -579 5 -1225 -10
-401 -14 -739 -10 -862 l7 -203 -33 -27 c-97 -81 -161 -142 -227 -216 -88 -98
-1977 -2588 -2063 -2720 -212 -321 -352 -742 -414 -1241 -49 -394 -78 -1473
-47 -1766 67 -645 232 -1071 526 -1366 305 -304 716 -439 1286 -421 305 10
523 48 676 117 65 29 70 30 126 19 101 -20 279 -6 503 40 109 23 251 46 315
51 191 17 317 48 425 103 72 36 165 108 200 155 l30 40 52 -48 c143 -131 311
-148 699 -69 82 17 223 36 314 44 215 18 349 60 459 143 31 23 37 24 65 13
107 -44 154 -54 251 -54 58 0 131 7 175 17 188 43 265 55 410 65 192 14 260
30 375 86 103 50 171 104 245 192 l52 63 55 -46 c130 -105 207 -129 393 -121
91 4 169 15 285 41 88 20 232 45 320 56 321 42 456 92 586 220 42 41 83 85 91
98 l15 23 56 -55 c80 -77 179 -124 306 -144 l101 -16 0 -234 0 -234 33 6 c17
3 3767 487 8332 1076 4565 589 8310 1073 8323 1075 22 5 22 7 22 170 0 156 -1
165 -19 165 -19 0 -16326 -2103 -16403 -2116 l-38 -6 0 886 0 886 23 5 c12 2
3651 473 8087 1045 4436 572 8082 1043 8102 1046 36 5 57 31 575 715 296 390
564 749 596 797 124 186 241 472 286 697 77 393 42 847 -95 1212 -106 283
-305 589 -561 863 l-70 75 197 260 c108 143 211 287 228 321 73 144 98 283
108 586 20 635 -84 880 -420 987 -222 71 -426 65 -903 -25 -312 -59 -523 -142
-758 -298 -154 -102 -341 -288 -475 -468 -52 -71 -97 -128 -100 -128 -3 0 -16
17 -30 38 -44 65 -189 209 -263 260 -152 104 -338 177 -534 209 -62 10 -113
20 -113 23 0 3 147 199 327 435 179 237 357 477 395 535 229 349 343 770 324
1205 -25 604 -227 1054 -698 1560 l-65 70 197 260 c109 143 211 288 229 322
70 139 96 286 106 593 22 659 -97 899 -495 995 -79 19 -334 28 -440 14z m372
-609 c59 -17 96 -54 115 -118 15 -50 18 -104 18 -422 0 -355 -1 -366 -22 -405
-29 -56 -103 -122 -171 -153 l-56 -25 -61 16 c-138 39 -235 51 -325 40 -157
-20 -251 -73 -300 -169 -22 -43 -25 -62 -25 -149 0 -77 4 -109 18 -137 21 -41
465 -468 571 -549 214 -162 389 -417 509 -741 72 -194 103 -428 94 -728 -10
-375 -100 -643 -302 -905 -79 -102 -270 -287 -366 -355 -271 -191 -664 -286
-1069 -260 -285 19 -379 37 -427 82 -46 43 -52 82 -56 418 -4 335 9 577 34
618 20 33 121 107 173 127 43 17 44 17 112 -13 95 -42 224 -79 317 -93 151
-22 297 21 387 117 58 61 86 120 102 214 26 149 -25 242 -225 412 -139 118
-213 191 -445 437 -161 171 -199 225 -302 430 -115 229 -145 340 -159 585 -10
171 2 450 24 582 41 237 135 424 348 691 148 186 562 370 962 428 245 35 454
45 527 25z m-3202 -461 c182 -22 337 -97 466 -224 73 -72 88 -93 143 -205 41
-84 70 -162 90 -240 50 -196 61 -317 71 -790 5 -239 14 -614 20 -833 29 -1127
-10 -1519 -186 -1896 -223 -476 -685 -759 -1326 -811 -302 -25 -583 55 -757
216 -122 113 -200 228 -246 365 -14 40 -41 150 -61 244 -36 168 -36 173 -45
515 -16 656 -22 1727 -10 1947 20 367 50 626 92 787 66 261 287 518 612 716
252 153 793 252 1137 209z m-2563 -435 c13 -8 30 -28 39 -46 15 -28 15 -60 4
-357 -8 -211 -10 -432 -5 -626 12 -504 15 -2438 4 -2731 -9 -232 -8 -303 6
-485 27 -330 12 -442 -66 -502 -51 -39 -72 -44 -286 -72 -109 -14 -264 -37
-344 -50 -184 -31 -232 -32 -289 -2 -34 17 -51 34 -69 71 l-24 49 12 236 c12
234 24 2031 14 2058 -7 17 -47 17 -62 -1 -6 -7 -18 -42 -25 -77 -40 -184 -171
-603 -250 -800 -158 -393 -204 -495 -235 -523 -43 -39 -136 -38 -190 2 -44 32
-88 118 -137 266 -25 77 -74 202 -109 276 -40 86 -94 232 -149 401 -47 147
-92 272 -100 278 -10 9 -19 7 -37 -8 -23 -18 -23 -19 -20 -232 1 -117 5 -217
8 -222 7 -11 23 -871 28 -1483 4 -532 8 -505 -89 -550 -45 -21 -80 -26 -203
-35 -210 -13 -302 -25 -476 -60 -89 -18 -168 -29 -190 -26 -53 7 -84 39 -94
96 -5 25 -9 1052 -8 2282 l0 2236 35 69 c56 109 76 118 348 149 122 14 228 28
235 30 6 2 99 20 206 40 163 30 200 33 233 24 56 -15 85 -51 109 -133 34 -116
125 -375 163 -463 39 -92 135 -380 165 -500 11 -44 31 -108 44 -144 13 -35 32
-98 42 -139 23 -96 40 -130 66 -130 27 0 80 114 115 247 14 54 84 271 155 483
86 257 144 448 173 576 62 265 90 330 166 380 37 24 71 31 338 70 163 23 362
53 442 67 80 14 159 28 175 30 44 6 107 -3 132 -19z m-10759 -470 c31 -21 30
-80 -2 -127 -20 -29 -452 -553 -554 -673 -25 -29 -34 -32 -132 -44 -58 -6
-182 -25 -277 -41 -182 -30 -222 -29 -243 11 -17 32 -12 56 56 243 36 100 87
242 114 315 50 140 73 175 124 192 17 5 146 26 286 45 275 38 483 73 515 86
33 13 89 10 113 -7z m6567 -166 c55 -43 66 -122 45 -309 -6 -48 -12 -401 -15
-785 -13 -2049 -17 -2473 -24 -2734 -5 -173 -5 -382 2 -533 9 -228 8 -251 -8
-287 -37 -82 -108 -122 -250 -139 -49 -6 -220 -32 -380 -57 -163 -26 -304 -43
-323 -40 -44 7 -67 28 -87 80 -15 38 -15 134 -4 1046 6 553 14 1084 18 1180 3
96 3 285 -2 420 -4 153 -3 310 4 420 6 107 9 431 7 830 l-3 655 25 50 c27 54
71 89 129 104 20 6 119 19 221 31 102 11 262 36 355 54 208 41 253 44 290 14z
m-1633 -238 c14 -11 33 -39 43 -62 23 -60 37 -309 33 -613 -3 -229 -5 -254
-24 -295 -26 -55 -67 -98 -113 -117 -19 -8 -86 -19 -150 -23 -64 -5 -140 -16
-169 -25 -120 -36 -124 -60 -97 -570 9 -181 12 -387 9 -625 -3 -195 -2 -474 3
-620 5 -146 5 -427 1 -625 -4 -198 -4 -513 0 -700 4 -187 4 -364 0 -394 -9
-75 -51 -139 -111 -170 -41 -21 -69 -26 -180 -32 -185 -10 -376 -41 -560 -91
-91 -24 -134 -20 -183 17 -45 34 -58 84 -42 156 9 41 11 463 10 1723 -2 1828
3 1701 -58 1728 -30 14 -193 -3 -259 -27 -60 -21 -124 -18 -175 8 -43 21 -45
25 -53 77 -12 79 -9 817 4 863 30 111 133 153 481 197 86 11 209 31 275 45
135 28 379 67 567 90 72 9 148 20 170 26 61 15 465 77 512 78 27 1 50 -6 66
-19z m-2936 -446 c69 -33 74 -64 57 -349 -11 -181 -12 -337 -7 -635 5 -217 8
-879 8 -1470 1 -1025 2 -1077 20 -1118 23 -52 65 -89 114 -98 51 -10 169 9
357 56 87 22 175 40 195 40 55 0 102 -31 130 -86 l25 -48 0 -376 c-1 -363 -1
-376 -22 -415 -36 -68 -92 -110 -178 -134 -22 -6 -112 -18 -200 -27 -88 -8
-239 -30 -335 -49 -96 -18 -236 -38 -310 -45 -74 -7 -238 -32 -365 -57 -126
-25 -255 -45 -286 -45 -97 0 -159 45 -190 137 -11 33 -13 356 -10 1855 2 998
4 1950 4 2115 1 165 0 350 -2 410 -3 117 4 153 42 193 41 45 73 53 232 63 209
12 283 24 580 92 45 10 109 6 141 -9z m-1598 -252 c64 -46 67 -61 68 -322 0
-129 4 -469 9 -755 5 -286 8 -545 7 -575 -7 -396 -15 -1462 -13 -1726 3 -371
-4 -444 -54 -597 -95 -291 -314 -567 -608 -764 -202 -136 -410 -199 -774 -238
-250 -27 -467 -14 -607 35 -207 71 -425 277 -496 469 -62 163 -67 224 -82 866
-15 635 -15 922 0 1670 8 388 8 661 0 970 -10 387 -9 436 5 485 21 71 74 134
130 154 23 8 143 27 266 41 123 15 274 37 334 51 195 43 278 28 319 -56 16
-33 16 -100 6 -1025 -6 -544 -10 -1019 -10 -1055 1 -36 3 -362 4 -725 l3 -660
23 -46 c28 -58 80 -89 150 -89 104 0 221 40 269 92 12 13 32 46 45 73 l23 50
-3 1475 c-2 811 -6 1581 -10 1710 -10 298 -5 322 73 376 48 34 85 42 319 74
121 17 264 39 316 50 132 26 244 23 288 -8z m18941 -3112 c90 -51 104 -135 99
-588 -3 -349 -3 -348 -91 -429 -92 -85 -152 -99 -267 -62 -81 25 -262 36 -340
20 -184 -38 -276 -150 -268 -326 2 -51 10 -94 22 -118 10 -21 64 -81 120 -135
55 -53 164 -158 241 -233 77 -74 184 -170 238 -213 99 -79 211 -207 303 -346
52 -77 139 -268 190 -414 63 -181 77 -292 78 -611 1 -254 -1 -289 -21 -381
-46 -205 -117 -377 -220 -533 -116 -174 -388 -424 -558 -513 -90 -46 -283
-112 -406 -137 -194 -40 -324 -46 -565 -28 -306 24 -375 43 -419 117 -19 33
-20 57 -26 360 -6 329 6 594 28 635 29 52 166 145 215 145 16 0 50 -11 76 -24
67 -33 234 -84 320 -96 139 -19 295 24 375 104 111 111 146 285 84 421 -30 65
-103 140 -299 309 -75 64 -163 150 -194 189 -32 40 -101 115 -154 167 -131
131 -183 205 -283 398 -156 305 -172 381 -172 797 1 244 4 319 19 400 23 131
67 260 122 365 50 93 183 285 253 362 125 140 478 304 786 366 86 18 261 42
400 56 22 2 92 3 155 2 101 -2 120 -5 159 -26z m-2982 -405 c87 -18 212 -73
301 -134 205 -139 335 -418 382 -821 6 -52 15 -291 20 -530 4 -239 14 -682 21
-985 20 -876 -9 -1237 -128 -1579 -117 -341 -353 -611 -671 -770 -236 -119
-599 -195 -867 -183 -322 14 -547 123 -720 348 -98 125 -140 233 -195 499 -31
147 -33 171 -41 455 -17 610 -22 1820 -10 2035 35 591 76 808 193 999 132 218
417 455 661 550 303 117 782 170 1054 116z m-2469 -369 c15 -8 37 -25 48 -38
43 -46 47 -85 38 -327 -6 -187 -8 -3784 -1 -4161 1 -105 -1 -120 -25 -171 -30
-65 -75 -104 -145 -125 -26 -8 -124 -21 -218 -30 -100 -9 -237 -29 -332 -50
-183 -38 -207 -40 -261 -19 -95 38 -114 156 -89 570 11 184 15 332 10 432 -3
83 0 284 7 447 12 277 11 302 -6 386 -23 115 -39 132 -128 138 -68 4 -211 -20
-255 -43 -49 -25 -71 -59 -82 -124 -16 -100 -16 -480 0 -606 11 -86 12 -170 5
-390 -10 -343 -10 -336 0 -572 10 -214 3 -253 -52 -306 -44 -42 -89 -55 -237
-67 -77 -6 -225 -27 -330 -46 -314 -56 -401 -43 -428 67 -12 48 -10 3022 2
3195 13 189 16 752 6 1079 -8 246 -4 284 38 346 46 68 100 91 257 109 52 6
199 29 325 51 310 55 371 49 417 -42 15 -29 18 -63 18 -239 0 -113 -5 -351
-12 -530 -6 -179 -12 -343 -11 -365 0 -22 1 -116 3 -210 2 -196 9 -229 53
-251 37 -20 90 -16 227 16 119 29 153 57 166 140 5 30 9 372 9 760 0 785 -2
755 69 826 54 55 109 70 294 84 100 7 193 22 292 45 80 19 156 36 170 39 40 7
129 -3 158 -18z m-3150 -431 c29 -9 68 -30 88 -47 67 -59 66 -51 70 -477 5
-427 3 -445 -53 -510 -50 -59 -105 -73 -258 -65 -147 7 -234 -9 -336 -62 -139
-73 -232 -197 -264 -353 -51 -244 -79 -981 -55 -1396 22 -366 71 -544 181
-660 97 -102 194 -133 379 -119 63 5 163 9 222 9 122 0 148 -11 182 -80 18
-35 19 -66 20 -444 l1 -406 -24 -48 c-49 -95 -136 -165 -236 -187 -65 -14
-454 -40 -612 -40 -221 0 -382 33 -542 112 -70 34 -102 58 -186 142 -162 162
-230 263 -298 441 -64 166 -105 372 -134 677 -22 231 -26 1225 -5 1543 40 619
120 925 335 1271 145 232 353 428 583 546 184 95 314 126 694 161 96 10 201 6
248 -8z m-2408 -367 c32 -16 52 -36 69 -67 26 -48 30 -89 22 -286 -2 -55 2
-408 8 -784 6 -376 8 -693 5 -704 -7 -21 -16 -1280 -12 -1562 6 -392 -1 -469
-58 -642 -70 -209 -214 -422 -397 -586 -206 -185 -359 -271 -589 -332 -240
-63 -653 -93 -837 -61 -195 34 -324 101 -466 240 -134 131 -195 243 -235 433
-19 86 -22 152 -30 550 -5 249 -14 573 -19 720 -7 180 -7 349 -1 513 9 201 22
867 24 1140 0 36 -5 247 -12 469 -14 448 -12 479 41 558 52 78 79 87 342 117
127 14 286 37 354 51 68 14 144 25 168 25 89 0 150 -47 161 -125 4 -26 3 -199
-1 -384 -4 -185 -5 -461 -2 -614 4 -153 1 -452 -6 -665 -9 -293 -9 -451 -1
-652 7 -167 9 -407 4 -650 -8 -414 -3 -504 26 -553 32 -56 75 -77 157 -77 159
0 271 65 311 181 18 50 19 81 14 439 -2 212 -4 489 -4 615 0 127 0 412 0 635
-1 223 0 565 2 760 2 195 -2 516 -8 712 -12 400 -12 400 54 455 51 42 81 49
336 83 124 17 272 39 330 49 145 26 196 26 250 -1z m-2924 -439 c48 -45 55
-97 64 -469 4 -193 4 -373 -1 -408 -11 -77 -36 -129 -83 -170 -43 -37 -91 -52
-173 -52 -75 0 -201 -23 -242 -45 -63 -32 -65 -48 -55 -360 5 -154 10 -491 11
-750 1 -258 3 -906 5 -1440 3 -755 1 -980 -9 -1015 -16 -59 -74 -116 -138
-136 -27 -7 -83 -14 -125 -14 -130 0 -387 -39 -569 -86 -103 -26 -144 -23
-193 16 -46 35 -52 69 -38 183 9 75 12 310 11 897 -1 437 -3 847 -6 910 -3 63
-2 423 2 800 5 377 5 705 1 729 -9 51 -38 87 -78 96 -34 7 -191 -13 -244 -31
-78 -28 -174 -10 -210 40 -20 27 -21 38 -20 459 1 382 3 437 18 472 20 47 42
72 79 92 51 26 180 53 372 78 104 13 246 35 315 49 132 26 431 71 540 81 36 3
90 11 120 16 182 34 551 87 583 84 23 -2 49 -13 63 -26z m-3034 -413 c189 -36
344 -140 499 -334 155 -193 201 -345 218 -722 30 -641 34 -775 22 -880 -42
-364 -176 -678 -382 -895 -41 -44 -83 -91 -92 -105 -30 -43 -19 -97 34 -170
29 -39 143 -303 234 -540 45 -118 118 -294 162 -390 44 -96 93 -206 108 -245
74 -184 3 -335 -176 -374 -24 -5 -120 -17 -214 -26 -93 -9 -245 -32 -339 -51
-93 -19 -197 -34 -230 -34 -98 0 -119 23 -155 175 -39 166 -89 309 -204 575
-69 161 -98 243 -157 449 -16 55 -31 84 -56 109 -31 31 -38 34 -77 29 -63 -9
-93 -47 -103 -134 -13 -121 -7 -628 10 -861 18 -249 13 -314 -30 -389 -49 -85
-89 -98 -342 -118 -160 -13 -218 -22 -349 -56 -183 -47 -228 -47 -274 -3 -63
60 -63 58 -56 657 3 298 8 1237 11 2087 6 1572 12 1823 42 1882 53 106 118
131 455 173 118 15 315 47 439 71 664 131 837 152 1002 120z m-3076 -489 c34
-39 49 -101 89 -367 37 -248 79 -477 152 -830 24 -118 66 -322 93 -452 62
-299 147 -808 205 -1228 25 -179 59 -422 76 -540 16 -118 61 -370 99 -560 38
-190 72 -370 75 -401 14 -115 -35 -194 -136 -223 -30 -8 -117 -20 -194 -26
-77 -6 -183 -20 -235 -31 -52 -11 -148 -31 -212 -44 -133 -28 -204 -31 -253
-11 -56 24 -66 56 -76 255 -16 333 -27 388 -84 445 -61 61 -150 66 -291 17
-72 -26 -109 -60 -145 -135 -31 -65 -36 -100 -48 -361 -9 -190 -20 -236 -64
-283 -49 -53 -143 -82 -267 -82 -101 0 -380 -39 -500 -70 -113 -29 -210 -37
-251 -20 -85 36 -79 148 32 680 72 340 129 670 164 950 33 259 78 529 115 690
16 69 47 229 70 355 40 223 122 624 214 1045 56 258 116 570 156 815 21 131
38 201 53 229 38 69 62 76 336 108 135 15 343 46 461 67 259 48 330 50 366 8z
m-2331 -301 c46 -20 90 -59 111 -98 11 -21 15 -109 19 -407 6 -415 5 -433 -47
-496 -54 -64 -72 -69 -268 -71 -192 -1 -235 -10 -345 -67 -75 -40 -171 -136
-207 -208 -15 -30 -34 -86 -42 -126 -43 -204 -71 -730 -63 -1153 11 -528 56
-735 189 -877 103 -108 215 -135 458 -109 167 18 224 15 273 -18 68 -45 68
-51 69 -493 2 -394 1 -398 -21 -441 -52 -101 -143 -169 -251 -190 -95 -18
-407 -37 -605 -37 -249 1 -396 32 -557 117 -73 38 -244 198 -319 298 -199 264
-275 620 -299 1393 -13 425 7 1055 46 1392 78 687 409 1214 921 1462 166 81
332 117 663 147 94 8 235 -1 275 -18z"/>
<path d="M21189 15335 c-90 -47 -140 -129 -162 -264 -16 -104 -15 -2171 2
-2313 14 -126 43 -202 95 -254 51 -51 95 -61 170 -40 105 31 171 100 208 219
25 81 25 78 20 687 -1 195 0 477 4 625 8 324 -11 1034 -30 1144 -20 111 -56
175 -118 207 -43 22 -135 17 -189 -11z"/>
<path d="M24165 9826 c-84 -39 -135 -108 -162 -224 -14 -58 -17 -186 -20 -977
-4 -971 5 -1398 32 -1500 32 -120 103 -194 187 -195 66 0 143 36 192 91 92
102 109 201 97 559 -5 146 -5 439 0 685 9 447 -2 1167 -21 1322 -12 96 -31
154 -65 198 -51 67 -149 84 -240 41z"/>
<path d="M10106 7754 c-108 -26 -155 -66 -169 -142 -4 -18 -2 -99 3 -180 7
-100 7 -221 -1 -378 -15 -339 3 -465 76 -523 82 -63 276 -15 390 96 27 28 62
76 79 113 l31 65 -3 260 c-3 289 -14 456 -37 531 -21 70 -68 132 -118 155 -51
23 -163 24 -251 3z"/>
<path d="M7146 6493 c-8 -38 -24 -131 -36 -208 -11 -77 -43 -285 -70 -461 -28
-177 -50 -337 -50 -356 0 -73 78 -102 207 -75 127 27 160 70 148 189 -17 181
-133 949 -145 962 -24 30 -38 17 -54 -51z"/>
<path d="M26269 4706 c-80 -32 -120 -59 -172 -115 -162 -173 -153 -457 18
-532 128 -56 310 -19 425 88 194 179 178 497 -28 567 -68 24 -175 20 -243 -8z
m150 -134 c55 -30 73 -73 68 -164 -3 -68 -8 -84 -37 -126 -60 -88 -142 -121
-209 -84 -49 27 -71 73 -71 151 0 81 25 136 87 190 60 54 106 63 162 33z"/>
<path d="M25375 4586 c-135 -23 -137 -28 -159 -331 -22 -308 -22 -311 9 -331
32 -21 84 -12 115 21 18 19 25 43 32 114 9 78 13 90 32 95 38 10 43 7 76 -56
68 -128 76 -138 118 -138 55 1 102 46 102 100 0 11 -18 54 -40 94 l-40 73 34
58 c72 119 59 229 -34 293 -27 18 -46 22 -104 21 -39 -1 -102 -7 -141 -13z
m132 -124 c18 -11 32 -55 26 -84 -7 -39 -52 -76 -100 -84 l-43 -7 6 79 c3 44
7 85 10 92 4 13 81 17 101 4z"/>
<path d="M24489 4466 c-80 -32 -120 -59 -172 -115 -162 -173 -153 -457 18
-532 128 -56 310 -19 425 88 194 179 178 497 -29 568 -68 23 -175 19 -242 -9z
m150 -134 c55 -30 73 -73 68 -164 -3 -68 -8 -84 -37 -126 -60 -88 -142 -121
-209 -84 -49 27 -71 73 -71 151 0 81 25 136 87 190 60 54 106 63 162 33z"/>
<path d="M23783 4356 c-50 -22 -61 -56 -73 -227 -6 -85 -12 -158 -14 -163 -1
-4 -53 70 -116 165 l-115 174 -42 3 c-51 4 -106 -18 -127 -51 -12 -18 -21 -91
-37 -291 -19 -245 -19 -269 -5 -291 32 -48 97 -40 139 17 17 22 22 55 32 183
7 86 15 158 17 160 2 3 44 -65 92 -149 48 -85 96 -162 106 -171 22 -20 87 -22
122 -4 38 19 77 61 88 93 10 32 40 382 40 472 0 27 -6 58 -12 67 -19 23 -58
29 -95 13z"/>
<path d="M22519 4196 c-80 -32 -120 -59 -172 -115 -162 -173 -153 -457 18
-532 128 -56 310 -19 425 88 194 179 178 497 -29 568 -68 23 -175 19 -242 -9z
m150 -134 c55 -30 73 -73 68 -164 -3 -68 -8 -84 -37 -126 -60 -88 -142 -121
-209 -84 -49 27 -71 73 -71 151 0 81 25 136 87 190 60 54 106 63 162 33z"/>
<path d="M21694 4090 c-73 -24 -149 -86 -175 -145 -25 -54 -24 -131 1 -172 21
-35 71 -64 140 -83 92 -24 117 -67 64 -109 -22 -18 -41 -21 -111 -21 -80 0
-86 -2 -114 -29 -32 -32 -37 -66 -15 -96 12 -16 29 -20 94 -23 173 -8 307 73
343 208 28 107 -24 182 -151 220 -84 25 -100 34 -100 60 0 37 47 60 122 60 64
0 72 3 99 29 88 88 -38 153 -197 101z"/>
<path d="M21030 3973 c-27 -26 -98 -199 -165 -403 l-18 -55 -33 200 c-36 216
-44 235 -103 235 -31 0 -86 -31 -100 -57 -5 -10 -35 -104 -66 -208 -54 -180
-75 -233 -75 -191 0 11 -18 96 -40 190 -34 145 -45 175 -67 194 -20 18 -33 22
-57 18 -41 -8 -86 -58 -86 -96 0 -16 30 -132 66 -257 56 -195 70 -232 95 -255
47 -45 124 -32 181 28 23 26 98 225 98 262 0 7 4 12 8 12 5 0 17 -51 27 -112
14 -87 24 -118 41 -135 46 -46 119 -42 177 10 31 27 52 72 142 292 58 143 106
272 107 288 2 66 -77 90 -132 40z"/>
<path d="M19609 3806 c-80 -32 -120 -59 -172 -115 -162 -173 -153 -457 18
-532 128 -56 310 -19 425 88 194 179 178 497 -28 567 -68 24 -175 20 -243 -8z
m150 -134 c55 -30 73 -73 68 -164 -3 -68 -8 -84 -37 -126 -60 -88 -142 -121
-209 -84 -49 27 -71 73 -71 151 0 81 25 136 87 190 60 54 106 63 162 33z"/>
<path d="M18893 3700 c-42 -25 -51 -44 -59 -123 l-7 -65 -74 -11 c-116 -17
-109 -21 -105 57 4 66 3 70 -24 91 -49 39 -122 7 -143 -63 -5 -17 -17 -145
-27 -285 l-17 -254 28 -24 c31 -27 61 -25 105 6 34 24 47 75 55 202 l7 107 41
6 c23 3 66 9 96 12 l53 7 -5 -39 c-4 -21 -9 -80 -13 -131 -6 -90 -6 -92 21
-119 21 -21 32 -25 58 -20 18 4 45 20 61 36 l30 29 17 223 c25 316 25 332 -7
357 -33 26 -50 26 -91 1z"/>
<path d="M17884 3570 c-73 -24 -149 -86 -175 -145 -25 -54 -24 -131 1 -172 21
-35 71 -64 140 -83 92 -24 117 -67 64 -109 -22 -18 -41 -21 -111 -21 -80 0
-86 -2 -114 -29 -32 -32 -37 -66 -15 -96 12 -16 29 -20 94 -23 173 -8 307 73
343 208 28 107 -24 182 -151 220 -84 25 -100 34 -100 60 0 37 47 60 122 60 64
0 72 3 99 29 88 88 -38 153 -197 101z"/>
<path d="M17133 3475 c-134 -29 -266 -134 -320 -252 -32 -69 -43 -206 -23
-268 18 -54 83 -121 138 -142 59 -22 173 -22 262 1 148 38 173 72 184 245 7
112 2 143 -28 154 -8 3 -55 0 -105 -7 -102 -14 -141 -38 -141 -87 0 -37 21
-52 64 -43 l36 6 0 -54 c0 -33 -6 -62 -16 -77 -15 -21 -23 -23 -79 -19 -109 7
-173 79 -162 183 13 130 108 224 242 240 33 4 72 14 86 21 33 16 57 69 42 93
-13 21 -98 24 -180 6z"/>
<path d="M16361 3357 c-57 -29 -63 -49 -83 -299 -23 -289 -22 -315 14 -341 25
-18 30 -19 64 -6 71 27 73 36 96 339 l21 273 -27 24 c-30 26 -50 28 -85 10z"/>
<path d="M15647 3264 c-120 -12 -156 -25 -177 -64 -6 -12 -21 -145 -32 -296
l-21 -275 22 -22 21 -22 128 22 c154 26 228 53 287 105 100 88 98 247 -3 273
l-25 6 38 31 c68 56 85 142 40 197 -44 52 -110 63 -278 45z m108 -154 c14 -45
-23 -81 -97 -94 -42 -8 -45 -2 -32 77 l7 37 58 0 c49 0 59 -3 64 -20z m-22
-229 c31 -12 41 -41 26 -74 -14 -30 -57 -53 -119 -63 l-43 -7 6 54 c4 30 7 62
7 71 0 24 77 36 123 19z"/>
<path d="M14824 3151 c-17 -10 -36 -32 -42 -47 -17 -42 -53 -543 -41 -565 20
-38 41 -40 195 -19 80 11 152 20 160 20 7 0 26 12 43 26 39 33 43 86 9 108
-20 12 -36 12 -113 1 -49 -8 -97 -14 -105 -14 -14 -1 -14 23 1 222 9 123 13
232 8 244 -16 44 -65 54 -115 24z"/>
<path d="M14182 3063 c-18 -9 -44 -30 -56 -47 -23 -30 -226 -535 -226 -560 0
-7 9 -25 21 -40 45 -57 131 -19 165 72 10 26 21 52 26 58 5 7 39 15 76 18 37
4 75 9 84 12 14 4 20 -7 33 -50 19 -63 34 -79 76 -78 41 1 78 27 94 66 13 31
10 47 -51 257 -35 123 -69 237 -76 252 -21 53 -100 73 -166 40z m35 -347 c-20
-5 -40 -7 -42 -4 -3 2 7 40 22 84 l27 79 15 -75 16 -75 -38 -9z"/>
<path d="M13341 2959 c-173 -24 -207 -31 -227 -50 -27 -26 -32 -70 -9 -89 11
-9 35 -11 82 -7 l66 6 -6 -42 c-3 -23 -11 -131 -18 -239 -12 -188 -12 -198 6
-218 24 -27 84 -27 118 1 36 28 45 67 57 259 6 91 13 188 16 216 l6 52 60 6
c68 8 108 38 108 80 0 21 -33 58 -50 55 -3 -1 -97 -14 -209 -30z"/>
<path d="M12627 2860 c-206 -29 -203 -24 -228 -364 -26 -338 -32 -330 211
-296 85 12 161 27 170 33 44 35 53 82 20 112 -17 16 -27 16 -107 6 -48 -7 -98
-14 -111 -17 -22 -4 -22 -4 -16 78 4 46 11 86 17 89 5 4 40 10 76 14 36 3 81
11 99 16 58 19 80 103 33 128 -12 7 -41 7 -82 1 -138 -21 -125 -23 -121 20 l4
37 96 12 c105 12 140 29 155 74 7 21 5 34 -7 52 -20 30 -30 30 -209 5z"/>
<path d="M11804 2741 c-17 -10 -36 -32 -42 -47 -17 -42 -53 -543 -41 -565 20
-38 41 -40 195 -19 80 11 152 20 160 20 7 0 26 12 43 26 39 33 43 86 9 108
-20 12 -36 12 -113 1 -49 -8 -97 -14 -105 -14 -14 -1 -14 23 1 222 9 123 13
232 8 244 -16 44 -65 54 -115 24z"/>
</g>
</svg>
